<?xml version="1.0" encoding="UTF-8"?>
<svg width="31" height="32" viewBox="0 0 31 32"
    xmlns="http://www.w3.org/2000/svg">
    <path id="-copy" fill="#307ff6" fill-rule="evenodd" stroke="none" d="M 30.577623 3.154297 L 27.330605 6.423828 C 28.703335 8.18165 29.658073 9.812004 30.194845 11.314941 C 30.731619 12.817879 31 14.580069 31 16.601563 C 31 20.451191 29.636089 23.878891 26.908228 26.884766 C 23.828384 30.277361 19.983036 31.973633 15.37207 31.973633 C 13.488966 31.973633 11.825875 31.709963 10.382749 31.182617 C 8.939621 30.655272 7.267731 29.697273 5.367027 28.308594 L 2.120008 31.499023 L 0.140119 29.574219 L 3.413536 26.383789 C 2.040806 24.485342 1.086069 22.793465 0.549296 21.308105 C 0.012523 19.822746 -0.255859 18.130869 -0.255859 16.232422 C -0.255859 12.031229 1.27964 8.396988 4.350684 5.32959 C 7.421728 2.262192 11.060289 0.728516 15.266477 0.728516 C 17.184778 0.728516 18.896267 1.000975 20.40099 1.545898 C 21.905714 2.090822 23.573204 3.04882 25.403511 4.419922 L 28.597734 1.203125 Z M 23.476419 6.344727 C 21.769306 5.254877 20.3218 4.499025 19.133862 4.077148 C 17.945921 3.655272 16.656807 3.444336 15.266477 3.444336 C 11.764254 3.444336 8.746052 4.714342 6.211781 7.254395 C 3.677509 9.794447 2.410392 12.822248 2.410392 16.337891 C 2.410392 17.849617 2.621578 19.198725 3.043957 20.385254 C 3.466335 21.571783 4.223086 22.947258 5.31423 24.511719 Z M 25.456308 8.269531 L 7.241323 26.436523 C 9.898788 28.317392 12.617809 29.257813 15.398469 29.257813 C 18.918289 29.257813 21.945292 28.00099 24.479563 25.487305 C 27.013836 22.973621 28.280951 19.97658 28.280951 16.496094 C 28.280951 14.966789 28.074165 13.600103 27.660585 12.395996 C 27.247007 11.191889 26.512255 9.816414 25.456308 8.269531 Z"/>
</svg>
